<svg width="18" height="19" viewBox="0 0 18 19" fill="none" xmlns="http://www.w3.org/2000/svg">
<path d="M9.00344 4.88273C8.09104 4.88273 7.19913 5.15344 6.44049 5.66063C5.68186 6.16781 5.09058 6.8887 4.74142 7.73212C4.39226 8.57554 4.3009 9.50362 4.4789 10.399C4.6569 11.2944 5.09627 12.1168 5.74143 12.7623C6.38659 13.4079 7.20858 13.8475 8.10345 14.0256C8.99832 14.2037 9.92587 14.1123 10.7688 13.7629C11.6118 13.4136 12.3322 12.8219 12.8391 12.0629C13.3461 11.3038 13.6166 10.4114 13.6166 9.4985C13.6175 8.89209 13.4988 8.29146 13.2673 7.73103C13.0358 7.1706 12.6961 6.6614 12.2675 6.2326C11.8389 5.8038 11.33 5.46384 10.7699 5.23221C10.2098 5.00057 9.60951 4.88181 9.00344 4.88273ZM9.00344 12.499C8.41033 12.499 7.83054 12.323 7.33738 11.9933C6.84423 11.6636 6.45987 11.195 6.23289 10.6467C6.00592 10.0985 5.94653 9.49517 6.06224 8.91313C6.17795 8.33109 6.46356 7.79645 6.88296 7.37682C7.30235 6.9572 7.83668 6.67143 8.4184 6.55565C9.00011 6.43988 9.60307 6.4993 10.151 6.7264C10.699 6.9535 11.1673 7.33808 11.4969 7.83151C11.8264 8.32494 12.0022 8.90506 12.0022 9.4985C12.0007 10.2938 11.6842 11.0561 11.1222 11.6184C10.5601 12.1808 9.79828 12.4974 9.00344 12.499ZM14.8811 4.6977C14.8811 4.91055 14.818 5.11862 14.6998 5.29559C14.5817 5.47257 14.4137 5.6105 14.2171 5.69196C14.0206 5.77341 13.8043 5.79473 13.5957 5.7532C13.3871 5.71168 13.1954 5.60918 13.045 5.45867C12.8946 5.30817 12.7921 5.11641 12.7506 4.90765C12.7091 4.69889 12.7304 4.48251 12.8118 4.28586C12.8932 4.08922 13.0311 3.92114 13.208 3.80289C13.3849 3.68464 13.5928 3.62152 13.8055 3.62152C13.9465 3.62126 14.0862 3.64878 14.2165 3.70252C14.3469 3.75626 14.4654 3.83516 14.5653 3.93473C14.6651 4.03429 14.7444 4.15255 14.7986 4.28278C14.8528 4.413 14.8808 4.55263 14.8811 4.6937V4.6977ZM17.9369 5.78988C17.9667 4.39011 17.4445 3.03487 16.4835 2.01725C15.4644 1.05887 14.1113 0.536993 12.713 0.56301C11.2276 0.478997 6.77532 0.478997 5.28891 0.56301C3.89099 0.53506 2.53765 1.05559 1.5184 2.01325C0.559998 3.03127 0.0385658 4.3846 0.0659739 5.78288C-0.0219913 7.27313 -0.0219913 11.7239 0.0659739 13.2101C0.0362138 14.6099 0.558326 15.9651 1.5194 16.9827C2.53888 17.9405 3.89171 18.4623 5.28991 18.437C6.77532 18.521 11.2276 18.521 12.714 18.437C14.113 18.4668 15.4674 17.9444 16.4845 16.9827C17.4423 15.9631 17.9639 14.6092 17.9379 13.2101C18.0209 11.7239 18.0209 7.27313 17.9369 5.78688V5.78988ZM16.0177 14.8084C15.865 15.1956 15.6343 15.5474 15.3401 15.8418C15.0459 16.1361 14.6944 16.3669 14.3073 16.5197C13.1228 16.9897 10.3089 16.8807 9.00344 16.8807C7.69795 16.8807 4.88007 16.9807 3.69954 16.5197C3.31249 16.3669 2.96096 16.1361 2.66675 15.8418C2.37253 15.5474 2.14192 15.1956 1.98921 14.8084C1.5194 13.6232 1.62836 10.8077 1.62836 9.5015C1.62836 8.19528 1.52839 5.37581 1.98921 4.19461C2.14192 3.80735 2.37253 3.45562 2.66675 3.16125C2.96096 2.86687 3.31249 2.63612 3.69954 2.48333C4.88407 2.01325 7.69795 2.12227 9.00344 2.12227C10.3089 2.12227 13.1268 2.02225 14.3073 2.48333C14.6944 2.63612 15.0459 2.86687 15.3401 3.16125C15.6343 3.45562 15.865 3.80735 16.0177 4.19461C16.4875 5.37981 16.3785 8.19528 16.3785 9.5015C16.3785 10.8077 16.4875 13.6242 16.0177 14.8054V14.8084Z" fill="#383A4A"/>
</svg>
