<svg width="18" height="13" viewBox="0 0 18 13" fill="none" xmlns="http://www.w3.org/2000/svg">
<path d="M17.6231 2.15138C17.5211 1.76877 17.3205 1.41962 17.0413 1.13884C16.7621 0.858063 16.4141 0.655487 16.0321 0.551378C13.6987 0.270219 11.3492 0.143279 8.9991 0.171381C6.64931 0.142992 4.30022 0.269597 1.9671 0.550379C1.58506 0.654488 1.23705 0.857056 0.957851 1.13783C0.678652 1.41861 0.47805 1.76776 0.376098 2.15038C-0.125366 5.03575 -0.125366 7.986 0.376098 10.8714C0.47818 11.2514 0.679076 11.5976 0.958355 11.8747C1.23763 12.1519 1.58533 12.3502 1.9661 12.4494C4.29922 12.7302 6.64831 12.8568 8.9981 12.8284C11.3479 12.8568 13.697 12.7302 16.0301 12.4494C16.4114 12.3506 16.7597 12.1526 17.0396 11.8754C17.3194 11.5982 17.5208 11.2517 17.6231 10.8714C18.1246 7.98601 18.1246 5.03575 17.6231 2.15038V2.15138ZM7.1581 9.18838V3.83638L11.8581 6.51238L7.1581 9.18838Z" fill="#383A4A"/>
</svg>
