<svg width="18" height="19" viewBox="0 0 18 19" fill="none" xmlns="http://www.w3.org/2000/svg">
<path d="M18 9.5545C17.9998 7.8241 17.5067 6.13 16.5793 4.67276C15.6518 3.21553 14.3288 2.05617 12.7668 1.33195C11.2047 0.607732 9.46919 0.348976 7.76556 0.586318C6.06193 0.823659 4.46156 1.54716 3.15392 2.67116C1.84628 3.79517 0.886124 5.27261 0.387126 6.92857C-0.111872 8.58454 -0.128817 10.3497 0.338297 12.015C0.805411 13.6804 1.73702 15.1762 3.02284 16.3254C4.30866 17.4746 5.89484 18.2291 7.5936 18.4995V12.1715H5.30756V9.5545H7.5936V7.5595C7.54534 7.09379 7.59925 6.62309 7.75153 6.18063C7.90381 5.73817 8.15074 5.33473 8.4749 4.99876C8.79907 4.66279 9.19256 4.40249 9.62762 4.23623C10.0627 4.06996 10.5287 4.00178 10.9928 4.0365C11.6678 4.04602 12.3411 4.10518 13.0075 4.2135V6.4405H11.8724C11.6791 6.41484 11.4826 6.43323 11.2973 6.4943C11.112 6.55537 10.9427 6.65756 10.802 6.79332C10.6612 6.92908 10.5526 7.09492 10.4841 7.2786C10.4156 7.46229 10.3891 7.6591 10.4064 7.8545V9.5545H12.9022L12.5046 12.1715H10.4064V18.4995C12.5232 18.1619 14.4509 17.0757 15.8428 15.436C17.2348 13.7963 17.9997 11.7108 18 9.5545Z" fill="#383A4A"/>
</svg>
