<svg width="18" height="15" viewBox="0 0 18 15" fill="none" xmlns="http://www.w3.org/2000/svg">
<path d="M16.15 3.73563C16.161 3.8998 16.161 4.06397 16.161 4.22814C16.1711 5.64585 15.9064 7.05147 15.3823 8.36328C14.8582 9.67508 14.0852 10.8669 13.1082 11.8694C12.1311 12.8719 10.9696 13.6651 9.69111 14.2028C8.41262 14.7406 7.0427 15.0122 5.661 15.0018C3.65353 15.0051 1.68781 14.4137 0 13.2985C0.295849 13.3321 0.593357 13.3478 0.891 13.3457C2.55139 13.3501 4.1648 12.7804 5.471 11.7287C4.70146 11.7136 3.95566 11.4527 3.33746 10.9822C2.71925 10.5118 2.25942 9.85521 2.022 9.10399C2.25356 9.14155 2.48756 9.1611 2.722 9.16247C3.04967 9.1614 3.37591 9.11796 3.693 9.03319C2.85688 8.86054 2.10486 8.39603 1.56485 7.71867C1.02484 7.04131 0.730185 6.19293 0.731 5.31781V5.27062C1.24256 5.56384 1.81446 5.72873 2.4 5.75184C1.61708 5.21593 1.06298 4.39367 0.850752 3.45287C0.638529 2.51206 0.784186 1.52362 1.258 0.689251C2.1847 1.85949 3.34078 2.8168 4.65125 3.4991C5.96173 4.1814 7.39735 4.57346 8.865 4.64985C8.80593 4.36478 8.77544 4.07426 8.774 3.78283C8.77483 3.02361 8.9979 2.28216 9.41431 1.65458C9.83072 1.027 10.4213 0.542247 11.1094 0.263145C11.7975 -0.0159582 12.5515 -0.0765347 13.2735 0.0892718C13.9956 0.255078 14.6525 0.639622 15.159 1.19305C15.985 1.02972 16.7772 0.720373 17.5 0.278825C17.2249 1.15359 16.6482 1.8953 15.878 2.36481C16.6098 2.27897 17.325 2.0815 18 1.77893C17.495 2.53327 16.8695 3.19479 16.15 3.73563Z" fill="#383A4A"/>
</svg>
